<svg focusable="false" xmlns="http://www.w3.org/2000/svg" viewBox="0 0 34 34" style="width: 40px;">
<path d="M23.4,11.4c-1.6,0-2.8,1.3-2.8,2.8v5.1h-1.4V3.8c0-2.1-1.7-3.8-3.8-3.8h-1.5c-2.1,0-3.8,1.7-3.8,3.8v9.9H8.9
	H8.7V8.6c0-1.6-1.3-2.8-2.8-2.8S3,7.1,3,8.6v7.9c0,1.6,1.3,2.8,2.8,2.8h4.2v13.3H6.5c-0.4,0-0.6,0.3-0.6,0.6V34h17.5v-0.6
	c0-0.4-0.3-0.6-0.6-0.6h-3.6V25h4.2c1.6,0,2.8-1.3,2.8-2.8v-7.9C26.2,12.7,24.9,11.4,23.4,11.4z M12.9,26c-0.3,0-0.6-0.3-0.6-0.6
	c0-0.3,0.3-0.6,0.6-0.6c0.3,0,0.6,0.3,0.6,0.6C13.4,25.8,13.2,26,12.9,26z M13.9,6.6c-0.3,0-0.6-0.3-0.6-0.6s0.3-0.6,0.6-0.6
	c0.3,0,0.6,0.3,0.6,0.6S14.2,6.6,13.9,6.6z M16.7,16.9c-0.3,0.4-1,0.5-1.4,0.2c-0.4-0.3-0.5-1-0.2-1.4s1-0.5,1.4-0.2
	C16.9,15.8,17,16.4,16.7,16.9z"/>
</svg>
