<?xml version="1.0" encoding="utf-8"?>
<!-- Generator: Adobe Illustrator 24.1.2, SVG Export Plug-In . SVG Version: 6.00 Build 0)  -->
<svg version="1.1"
	 id="svg3857" xmlns:cc="http://creativecommons.org/ns#" xmlns:dc="http://purl.org/dc/elements/1.1/" xmlns:inkscape="http://www.inkscape.org/namespaces/inkscape" xmlns:rdf="http://www.w3.org/1999/02/22-rdf-syntax-ns#" xmlns:sodipodi="http://sodipodi.sourceforge.net/DTD/sodipodi-0.dtd" xmlns:svg="http://www.w3.org/2000/svg"
	 xmlns="http://www.w3.org/2000/svg" xmlns:xlink="http://www.w3.org/1999/xlink" x="0px" y="0px" viewBox="0 0 119.9 18.4"
	 style="enable-background:new 0 0 119.9 18.4;" xml:space="preserve">
<path id="path3898" d="M11.1,3.9c0,0-0.4-0.7-0.5-1C9.8,1.3,9.8,1.2,9,1.1C8.8,1.1,8.6,1,8.6,0.9V0.4l0.1-0.1c1.5,0,4.9,0,4.9,0h0.1
	v0.5c0,0.1-0.1,0.2-0.3,0.2L13,1.1c-0.9,0.1-0.8,0.4-0.2,1.6l5.9,11.6l0.2,0.1l5-12c0.2-0.5,0.1-0.8-0.1-1s-0.4-0.3-1-0.3h-0.5
	c-0.1,0-0.1,0-0.2-0.1C22,1,22,0.9,22,0.9V0.4l0.2-0.1c1.4,0,5.7,0,5.7,0L28,0.4v0.5c0,0.1-0.1,0.2-0.2,0.2c-0.7,0-1.3,0.2-1.7,0.5
	c-0.4,0.3-0.6,0.7-0.8,1.2c0,0-4.6,10.6-6.2,14.1c-0.6,1.2-1.2,1.1-1.7,0c-1.1-2.3-4.2-9.2-4.2-9.2L11.1,3.9z"/>
<path id="path3900" d="M20.2,0.3c0,0-3.2,0-4.6,0l-0.1,0.1v0.5c0,0.1,0,0.1,0.1,0.1s0.1,0.1,0.2,0.1H16c0.6,0,0.9,0.2,0.9,0.3
	c0.1,0.2,0.2,0.4-0.1,1.1l-6,11.9h-0.2c0.1-0.1-4.2-9.1-5.4-12.1C5,2,5,1.7,5,1.6c0-0.3,0.3-0.5,0.8-0.5h0.6c0.2,0,0.3-0.1,0.3-0.2
	V0.4L6.6,0.3c0,0-5.1,0-6.2,0v0.1v0.5c0,0.1,0.1,0.2,0.4,0.2c0.7,0,1.1,0.1,1.3,0.3S2.5,2,2.8,2.7c1.6,3.7,4.9,10.4,6.5,14.2
	c0.5,1,1,1.2,1.8,0c1.2-2.3,4.5-9.2,4.5-9.2l2.6-4.9c0.3-0.5,0.6-1,0.7-1.2c0.3-0.4,0.4-0.5,1.2-0.5c0.2,0,0.2-0.1,0.2-0.2L20.2,0.3
	L20.2,0.3z"/>
<path id="path3904" d="M30,15.8c0,0.6,0.3,0.9,1.1,1l0.5,0.1c0.1,0,0.2,0.1,0.2,0.2v0.5v0.1c0,0-2-0.1-2.8-0.1
	c-0.7,0-2.8,0.1-2.8,0.1l-0.1-0.1v-0.5c0-0.1,0.1-0.2,0.2-0.2l0.5-0.1c0.9-0.1,1.1-0.5,1.1-1V7.1c0-0.6-0.3-0.7-1.1-0.8h-0.5
	c-0.1,0-0.2,0-0.2-0.1V5.6V5.5c0,0,2.1,0.1,2.9,0.1c0.7,0,2.7-0.1,2.7-0.1v0.1v0.6c0,0.1-0.1,0.1-0.2,0.1h-0.4
	C30.3,6.4,30,6.6,30,7.1V15.8z"/>
<path id="path3906" d="M37.7,15.8c0,0.6,0.3,0.9,1.1,1l0.3,0.1c0.1,0,0.2,0.1,0.2,0.2v0.5v0.1c0,0-1.6-0.1-2.4-0.1
	c-0.7,0-2.9,0.1-2.9,0.1l-0.1-0.1v-0.5c0-0.1,0.1-0.2,0.2-0.2l0.5-0.1c0.8-0.1,1.1-0.5,1.1-1V7.1c0-0.6-0.3-0.7-1.1-0.8H34
	c-0.1,0-0.2,0-0.2-0.1V5.6V5.5c0,0,2.1,0.1,2.9,0.1c0.7,0,2.4-0.1,2.4-0.1v0.1v0.6c0,0.1-0.1,0.1-0.2,0.1h-0.2
	c-0.8,0.2-1.1,0.3-1.1,0.8V11c0.9,0,1.4-0.4,2.5-1.7c1-1.1,1.8-2.1,1.8-2.6c0-0.2-0.2-0.4-0.8-0.5c-0.1,0-0.2-0.1-0.2-0.1V5.5l0,0
	c0,0,2.1,0.1,2.9,0.1c0.7,0,1.8-0.1,1.8-0.1h0.1v0.6c0,0.1-0.1,0.1-0.2,0.1c-1,0.1-1.7,0.1-2.7,1.2L40.6,10c-0.4,0.5-0.6,0.8-0.6,1
	s0.1,0.3,0.2,0.4l3.9,4.7c0.3,0.4,0.9,0.5,1.5,0.6h0.1c0.1,0,0.2,0.1,0.2,0.2v0.5h-0.1c0,0-1.4,0-2.1,0c-0.7,0-1.6,0-1.6,0l0,0v-0.3
	c0-0.3,0-0.6-0.4-1l-2.9-3.6c-0.4-0.5-0.8-0.6-1.4-0.6L37.7,15.8L37.7,15.8z"/>
<path id="path3908" d="M51.7,15.8c0,0.6,0.3,0.9,1.1,1l0.5,0.1c0.1,0,0.2,0.1,0.2,0.2v0.5v0.1c0,0-2-0.1-2.8-0.1
	c-0.7,0-2.8,0.1-2.8,0.1l-0.1-0.1v-0.5c0-0.1,0.1-0.2,0.2-0.2l0.5-0.1c0.9-0.1,1.1-0.5,1.1-1V7.1c0-0.6-0.3-0.7-1.1-0.8H48
	c-0.1,0-0.2,0-0.2-0.1V5.6V5.5c0,0,2.1,0.1,2.9,0.1c0.7,0,2.7-0.1,2.7-0.1v0.1v0.6c0.1,0,0,0.1-0.1,0.1h-0.5
	c-0.8,0.1-1.1,0.3-1.1,0.8C51.7,7.1,51.7,15.8,51.7,15.8z"/>
<path id="path3910" d="M57.3,7.2c0-0.8-0.3-0.8-1.6-0.9c-0.2,0-0.2-0.1-0.2-0.1V5.5h0.1c0.4,0,1.9,0.1,2.7,0.1
	c0.7,0,1.8-0.1,2.7-0.1c3.7,0,4.4,1.8,4.4,3.2c0,1.6-0.8,4-4.4,4c-0.7,0-1.2-0.1-1.6-0.3v3.5c0,0.6,0.3,0.7,1.1,0.8l0.5,0.1
	c0.1,0,0.2,0.1,0.2,0.2v0.5v0.1c0,0-2.1-0.1-2.9-0.1c-0.7,0-2.7,0.1-2.7,0.1v-0.1V17c0-0.1,0.1-0.1,0.2-0.2l0.5-0.1
	c0.8-0.1,1.1-0.3,1.1-0.8L57.3,7.2L57.3,7.2L57.3,7.2z M59.3,11.7c0.5,0.2,1.2,0.2,1.7,0.2c1.6,0,2.3-0.9,2.3-2.9
	c0-2.2-1-2.7-2.4-2.7c-1.2,0-1.6,0.2-1.6,0.9V11.7L59.3,11.7z"/>
<path id="path3912" d="M69.9,17.5c-0.8,0-2.6,0.1-2.6,0.1v-0.1v-0.6c0-0.1,0-0.1,0.2-0.1l0.6-0.1c0.8-0.1,1-0.6,1-1.1V7.1
	c0-0.6-0.3-0.7-1-0.8h-0.7c-0.2,0-0.2-0.1-0.2-0.1V5.6V5.5c0,0,2,0.1,2.8,0.1h3.8c0.8,0,2.6-0.1,2.6-0.1l0.1,0.1
	c0,1.1,0.2,2.1,0.4,3.1l-0.6,0.1c-0.3-1-0.8-2.3-2.4-2.3h-2.1c-0.5,0-0.8,0.2-0.8,0.6v3.8h1.9c0.7,0,0.9-0.3,1-0.8l0.2-0.5
	c0-0.1,0.1-0.1,0.2-0.1h0.4c0.1,0,0.1,0,0.1,0.1c-0.1,0.6-0.2,1.3-0.2,1.9c0,0.6,0.1,1.2,0.2,1.8l-0.1,0.1h-0.4
	c-0.1,0-0.2-0.1-0.2-0.1L74,12.7c-0.1-0.5-0.3-0.8-1-0.8h-1.9v4c0,0.5,0.3,1,0.8,1h2.5c1.3,0,2.1-0.8,2.4-2.2l0.6,0.1l-0.5,3
	l-0.1,0.1c0,0-1.5-0.1-2.3-0.1L69.9,17.5L69.9,17.5L69.9,17.5z"/>
<path id="path3914" d="M79.6,16.8l0.6-0.1c0.8-0.1,1-0.3,1-1.1V7.1c0-0.7-0.2-0.7-1-0.8h-0.5c-0.1,0-0.2-0.1-0.2-0.1V5.6V5.5
	c0,0,2.3,0.1,2.8,0.1s2.8-0.1,3.4-0.1c4.3,0,6.5,2.7,6.5,6.2c0,4.6-3.2,5.9-6.1,5.9c-2.1,0-3-0.1-3.8-0.1s-2.8,0.1-2.8,0.1v-0.1V17
	C79.5,16.9,79.5,16.8,79.6,16.8z M85.4,16.8c2.9,0,4.5-1.1,4.5-4.7c0-2.7-0.6-5.9-5-5.9c-1,0-1.7,0.2-1.7,0.8v8.6
	C83.3,16.4,83.5,16.8,85.4,16.8z"/>
<path id="path3916" d="M98.3,15.8c0,0.6,0.3,0.9,1.1,1l0.5,0.1c0.1,0,0.2,0.1,0.2,0.2v0.5v0.1c0,0-2-0.1-2.8-0.1
	c-0.7,0-2.8,0.1-2.8,0.1l-0.1-0.1v-0.5c0-0.1,0.1-0.2,0.2-0.2l0.5-0.1c0.9-0.1,1.1-0.5,1.1-1V7.1c0-0.6-0.3-0.7-1.1-0.8h-0.4
	c-0.1,0-0.2,0-0.2-0.1V5.6V5.5c0,0,2.1,0.1,2.9,0.1c0.7,0,2.7-0.1,2.7-0.1v0.1v0.6c0,0.1-0.1,0.1-0.2,0.1h-0.5
	c-0.8,0.1-1.1,0.3-1.1,0.8V15.8L98.3,15.8L98.3,15.8z"/>
<path id="path3918" d="M106.3,16.8l0.8,0.1c0.1,0,0.2,0.1,0.2,0.2v0.5l-0.1,0.1c0,0-2.8-0.1-3.5-0.1s-2.3,0.1-2.3,0.1l-0.1-0.1v-0.5
	c0-0.1,0.1-0.2,0.2-0.2c1.1-0.1,1.8-0.3,2.5-2l5.8-13.5c0.3-0.7,0.5-0.9,0.9-0.9s0.5,0.3,0.7,0.8l5.3,14.1c0.4,1,0.9,1.4,1.9,1.5
	h0.3c0.1,0,0.3,0.1,0.3,0.2v0.5l-0.1,0.1c0,0-2-0.1-3-0.1c-0.9,0-3.5,0.1-3.5,0.1v-0.1v-0.5c0-0.1,0.1-0.2,0.2-0.2l0.7-0.1
	c1-0.1,1.4-0.4,1.1-1.1l-1.6-4.4h-5.4c-0.6,0-0.8,0.1-0.9,0.4l-1.5,3.8C105,16.1,105.4,16.7,106.3,16.8z M112.7,10.2l-2.5-6.9h-0.1
	l-2.6,6.6c-0.1,0.3,0.1,0.3,0.6,0.3H112.7L112.7,10.2z"/>
</svg>
